<svg xmlns="http://www.w3.org/2000/svg" width="800" height="auto" viewBox="0 0 1920 793" fill="none">
  <rect y="1.00293" width="1920" height="792" fill="#082334"/>
  <path d="M0 0H1921V793H0V0Z"/>
  <path d="M1834 637H1912V730H1834V637Z" fill="#082334"/>
  <g opacity="0.03" transform="scale(0.7) translate(300, 150)">
    <path d="M777.55 329.65C737.091 329.65 698.29 313.578 669.681 284.969C641.072 256.36 625 217.559 625 177.1C625 136.641 641.072 97.8394 669.681 69.2307C698.29 40.622 737.091 24.5498 777.55 24.5498L777.55 177.1L777.55 329.65Z" fill="white"/>
    <path d="M777.55 670.505C737.091 670.505 698.29 654.433 669.681 625.824C641.072 597.216 625 558.414 625 517.955C625 477.497 641.072 438.695 669.681 410.086C698.29 381.477 737.091 365.405 777.55 365.405L777.55 517.955L777.55 670.505Z" fill="white"/>
    <path d="M808.45 670.505C848.909 670.505 887.711 654.433 916.319 625.824C944.928 597.216 961 558.414 961 517.955C961 477.497 944.928 438.695 916.319 410.086C887.711 381.477 848.909 365.405 808.45 365.405L808.45 517.955L808.45 670.505Z" fill="white"/>
  </g>
</svg>