<svg xmlns="http://www.w3.org/2000/svg" width="30" height="16" viewBox="0 0 30 16" fill="none">
<g clip-path="url(#clip0_172_545)">
<mask id="mask0_172_545" style="mask-type:luminance" maskUnits="userSpaceOnUse" x="0" y="0" width="30" height="16">
<path fill-rule="evenodd" clip-rule="evenodd" d="M22.1428 16C18.9733 16 16.2421 14.0891 14.9998 11.3371V16C12.916 16 10.9175 15.1571 9.444 13.6569C8.7772 12.9779 8.2426 12.1895 7.8571 11.3331V16C5.7733 16 3.7748 15.1571 2.3013 13.6569C0.827801 12.1566 0 10.1217 0 8C0 5.87827 0.827801 3.84344 2.3013 2.34315C3.7748 0.842855 5.7733 0 7.8571 0V4.6669C8.2426 3.8105 8.7772 3.02209 9.444 2.34315C10.9175 0.842855 12.916 0 14.9998 0V4.66293C16.2421 1.91089 18.9733 0 22.1428 0C26.4822 0 30 3.58172 30 8C30 12.4183 26.4822 16 22.1428 16Z" fill="white"/>
</mask>
<g mask="url(#mask0_172_545)">
<path d="M14.9998 11.3371H13.9998L15.9113 10.9257L14.9998 11.3371ZM14.9998 16H15.9998V17H14.9998V16ZM7.8571 11.3331H6.8571L8.769 10.9226L7.8571 11.3331ZM7.8571 16H8.8571V17H7.8571V16ZM7.8571 0V-1H8.8571V0H7.8571ZM7.8571 4.6669L8.769 5.07735L6.8571 4.6669H7.8571ZM14.9998 0V-1H15.9998V2.38419e-07L14.9998 0ZM14.9998 4.66293L15.9113 5.07434L13.9998 4.66293H14.9998ZM15.9113 10.9257C17.001 13.3398 19.3883 15 22.1428 15V17C18.5583 17 15.4831 14.8384 14.0884 11.7485L15.9113 10.9257ZM13.9998 16V11.3371H15.9998V16H13.9998ZM10.1574 12.9561C11.4448 14.267 13.1871 15 14.9998 15V17C12.6449 17 10.3901 16.0473 8.7305 14.3576L10.1574 12.9561ZM8.769 10.9226C9.1067 11.673 9.5747 12.3628 10.1574 12.9561L8.7305 14.3576C7.9797 13.593 7.3784 12.706 6.9452 11.7435L8.769 10.9226ZM6.8571 16V11.3331H8.8571V16H6.8571ZM3.0147 12.9561C4.3021 14.267 6.0444 15 7.8571 15V17C5.5022 17 3.2474 16.0473 1.5878 14.3576L3.0147 12.9561ZM1 8C1 9.86227 1.7267 11.6447 3.0147 12.9561L1.5878 14.3576C-0.0712013 12.6684 -1 10.3812 -1 8H1ZM3.0147 3.04385C1.7267 4.35528 1 6.13773 1 8H-1C-1 5.61881 -0.0712013 3.33159 1.5878 1.64244L3.0147 3.04385ZM7.8571 1C6.0444 1 4.3021 1.73304 3.0147 3.04385L1.5878 1.64244C3.2474 -0.0473288 5.5022 -1 7.8571 -1V1ZM6.8571 4.6669V0H8.8571V4.6669H6.8571ZM10.1574 3.04385C9.5747 3.63722 9.1067 4.32699 8.769 5.07735L6.9452 4.25645C7.3784 3.29402 7.9797 2.40696 8.7305 1.64244L10.1574 3.04385ZM14.9998 1C13.1871 1 11.4448 1.73304 10.1574 3.04385L8.7305 1.64244C10.3901 -0.0473288 12.6449 -1 14.9998 -1V1ZM13.9998 4.66293V-1.78814e-07L15.9998 2.38419e-07V4.66293H13.9998ZM22.1428 1C19.3883 1 17.001 2.66016 15.9113 5.07434L14.0884 4.25151C15.4831 1.16163 18.5583 -1 22.1428 -1V1ZM29 8C29 4.11694 25.913 1 22.1428 1V-1C27.0514 -1 31 3.0465 31 8H29ZM22.1428 15C25.913 15 29 11.8831 29 8H31C31 12.9535 27.0514 17 22.1428 17V15Z" fill="#2590CF"/>
</g>
</g>
<defs>
<clipPath id="clip0_172_545">
<rect width="30" height="16" fill="white" transform="matrix(-1 0 0 1 30 0)"/>
</clipPath>
</defs>
</svg>