<svg xmlns="http://www.w3.org/2000/svg" width="30" height="16" viewBox="0 0 30 16" fill="none">
  <g clip-path="url(#clip0_172_540)">
    <mask id="mask0_172_540" style="mask-type:luminance" maskUnits="userSpaceOnUse" x="0" y="0" width="30" height="16">
      <path fill-rule="evenodd" clip-rule="evenodd" d="M7.85715 16C11.0267 16 13.7579 14.0891 15.0002 11.3371V16C17.084 16 19.0825 15.1571 20.556 13.6569C21.2228 12.9779 21.7574 12.1895 22.1429 11.3331V16C24.2267 16 26.2252 15.1571 27.6987 13.6569C29.1722 12.1566 30 10.1217 30 8C30 5.87827 29.1722 3.84344 27.6987 2.34315C26.2252 0.842855 24.2267 0 22.1429 0V4.6669C21.7574 3.8105 21.2228 3.02209 20.556 2.34315C19.0825 0.842855 17.084 0 15.0002 0V4.66293C13.7579 1.91089 11.0267 0 7.85715 0C3.51776 0 0 3.58172 0 8C0 12.4183 3.51776 16 7.85715 16Z" fill="white"/>
    </mask>
    <g mask="url(#mask0_172_540)">
      <path d="M15.0002 11.3371H16.0002L14.0887 10.9257L15.0002 11.3371ZM15.0002 16H14.0002V17H15.0002V16ZM22.1429 11.3331H23.1429L21.231 10.9226L22.1429 11.3331ZM22.1429 16H21.1429V17H22.1429V16ZM22.1429 0V-1H21.1429V0H22.1429ZM22.1429 4.6669L21.231 5.07735L23.1429 4.6669H22.1429ZM15.0002 0V-1H14.0002V2.38419e-07L15.0002 0ZM15.0002 4.66293L14.0887 5.07434L16.0002 4.66293H15.0002ZM14.0887 10.9257C12.999 13.3398 10.6117 15 7.85715 15V17C11.4417 17 14.5169 14.8384 15.9116 11.7485L14.0887 10.9257ZM16.0002 16V11.3371H14.0002V16H16.0002ZM19.8426 12.9561C18.5552 14.267 16.8129 15 15.0002 15V17C17.3551 17 19.6099 16.0473 21.2695 14.3576L19.8426 12.9561ZM21.231 10.9226C20.8933 11.673 20.4253 12.3628 19.8426 12.9561L21.2695 14.3576C22.0203 13.593 22.6216 12.706 23.0548 11.7435L21.231 10.9226ZM23.1429 16V11.3331H21.1429V16H23.1429ZM26.9853 12.9561C25.6979 14.267 23.9556 15 22.1429 15V17C24.4978 17 26.7526 16.0473 28.4122 14.3576L26.9853 12.9561ZM29 8C29 9.86227 28.2733 11.6447 26.9853 12.9561L28.4122 14.3576C30.0712 12.6684 31 10.3812 31 8H29ZM26.9853 3.04385C28.2733 4.35528 29 6.13773 29 8H31C31 5.61881 30.0712 3.33159 28.4122 1.64244L26.9853 3.04385ZM22.1429 1C23.9556 1 25.6979 1.73304 26.9853 3.04385L28.4122 1.64244C26.7526 -0.0473288 24.4978 -1 22.1429 -1V1ZM23.1429 4.6669V0H21.1429V4.6669H23.1429ZM19.8426 3.04385C20.4253 3.63722 20.8933 4.32699 21.231 5.07735L23.0548 4.25645C22.6216 3.29402 22.0203 2.40696 21.2695 1.64244L19.8426 3.04385ZM15.0002 1C16.8129 1 18.5552 1.73304 19.8426 3.04385L21.2695 1.64244C19.6099 -0.0473288 17.3551 -1 15.0002 -1V1ZM16.0002 4.66293V-1.78814e-07L14.0002 2.38419e-07V4.66293H16.0002ZM7.85715 1C10.6117 1 12.999 2.66016 14.0887 5.07434L15.9116 4.25151C14.5169 1.16163 11.4417 -1 7.85715 -1V1ZM1 8C1 4.11694 4.08696 1 7.85715 1V-1C2.94857 -1 -1 3.0465 -1 8H1ZM7.85715 15C4.08696 15 1 11.8831 1 8H-1C-1 12.9535 2.94857 17 7.85715 17V15Z" fill="#2590CF"/>
    </g>
  </g>
  <defs>
    <clipPath id="clip0_172_540">
      <rect width="30" height="16" fill="white"/>
    </clipPath>
  </defs>
</svg>