<svg xmlns="http://www.w3.org/2000/svg" width="7" height="198" viewBox="0 0 7 198" fill="none">
<path d="M3.31835 198L6.2051 193L0.431599 193L3.31835 198ZM2.81836 -2.01909e-08L2.81836 2.475L3.81836 2.475L3.81836 2.01909e-08L2.81836 -2.01909e-08ZM2.81836 7.425L2.81836 12.375L3.81836 12.375L3.81836 7.425L2.81836 7.425ZM2.81836 17.325L2.81836 22.275L3.81836 22.275L3.81836 17.325L2.81836 17.325ZM2.81836 27.225L2.81836 32.175L3.81836 32.175L3.81836 27.225L2.81836 27.225ZM2.81836 37.125L2.81836 42.075L3.81836 42.075L3.81836 37.125L2.81836 37.125ZM2.81836 47.025L2.81836 51.975L3.81836 51.975L3.81836 47.025L2.81836 47.025ZM2.81836 56.925L2.81836 61.875L3.81836 61.875L3.81836 56.925L2.81836 56.925ZM2.81836 66.825L2.81836 71.775L3.81836 71.775L3.81836 66.825L2.81836 66.825ZM2.81836 76.725L2.81836 81.675L3.81836 81.675L3.81836 76.725L2.81836 76.725ZM2.81836 86.625L2.81836 91.575L3.81836 91.575L3.81836 86.625L2.81836 86.625ZM2.81835 96.525L2.81835 101.475L3.81835 101.475L3.81835 96.525L2.81835 96.525ZM2.81835 106.425L2.81835 111.375L3.81835 111.375L3.81835 106.425L2.81835 106.425ZM2.81835 116.325L2.81835 121.275L3.81835 121.275L3.81835 116.325L2.81835 116.325ZM2.81835 126.225L2.81835 131.175L3.81835 131.175L3.81835 126.225L2.81835 126.225ZM2.81835 136.125L2.81835 141.075L3.81835 141.075L3.81835 136.125L2.81835 136.125ZM2.81835 146.025L2.81835 150.975L3.81835 150.975L3.81835 146.025L2.81835 146.025ZM2.81835 155.925L2.81835 160.875L3.81835 160.875L3.81835 155.925L2.81835 155.925ZM2.81835 165.825L2.81835 170.775L3.81835 170.775L3.81835 165.825L2.81835 165.825ZM2.81835 175.725L2.81835 180.675L3.81835 180.675L3.81835 175.725L2.81835 175.725ZM2.81835 185.625L2.81835 190.575L3.81835 190.575L3.81835 185.625L2.81835 185.625ZM3.31835 198L6.2051 193L0.431599 193L3.31835 198ZM2.81836 -2.01909e-08L2.81836 2.475L3.81836 2.475L3.81836 2.01909e-08L2.81836 -2.01909e-08ZM2.81836 7.425L2.81836 12.375L3.81836 12.375L3.81836 7.425L2.81836 7.425ZM2.81836 17.325L2.81836 22.275L3.81836 22.275L3.81836 17.325L2.81836 17.325ZM2.81836 27.225L2.81836 32.175L3.81836 32.175L3.81836 27.225L2.81836 27.225ZM2.81836 37.125L2.81836 42.075L3.81836 42.075L3.81836 37.125L2.81836 37.125ZM2.81836 47.025L2.81836 51.975L3.81836 51.975L3.81836 47.025L2.81836 47.025ZM2.81836 56.925L2.81836 61.875L3.81836 61.875L3.81836 56.925L2.81836 56.925ZM2.81836 66.825L2.81836 71.775L3.81836 71.775L3.81836 66.825L2.81836 66.825ZM2.81836 76.725L2.81836 81.675L3.81836 81.675L3.81836 76.725L2.81836 76.725ZM2.81836 86.625L2.81836 91.575L3.81836 91.575L3.81836 86.625L2.81836 86.625ZM2.81835 96.525L2.81835 101.475L3.81835 101.475L3.81835 96.525L2.81835 96.525ZM2.81835 106.425L2.81835 111.375L3.81835 111.375L3.81835 106.425L2.81835 106.425ZM2.81835 116.325L2.81835 121.275L3.81835 121.275L3.81835 116.325L2.81835 116.325ZM2.81835 126.225L2.81835 131.175L3.81835 131.175L3.81835 126.225L2.81835 126.225ZM2.81835 136.125L2.81835 141.075L3.81835 141.075L3.81835 136.125L2.81835 136.125ZM2.81835 146.025L2.81835 150.975L3.81835 150.975L3.81835 146.025L2.81835 146.025ZM2.81835 155.925L2.81835 160.875L3.81835 160.875L3.81835 155.925L2.81835 155.925ZM2.81835 165.825L2.81835 170.775L3.81835 170.775L3.81835 165.825L2.81835 165.825ZM2.81835 175.725L2.81835 180.675L3.81835 180.675L3.81835 175.725L2.81835 175.725ZM2.81835 185.625L2.81835 190.575L3.81835 190.575L3.81835 185.625L2.81835 185.625Z" fill="#0A2540"/>
</svg>