<svg width="32" height="30" viewBox="0 0 32 30" fill="none" xmlns="http://www.w3.org/2000/svg">
<path d="M0.664381 14.809C0.664381 22.6791 7.51972 29.118 16.0514 29.118C24.5831 29.118 31.4385 22.6791 31.4385 14.809C31.4385 6.93887 24.5831 0.5 16.0514 0.5C7.51972 0.5 0.664381 6.93887 0.664381 14.809Z" fill="#F3F4F6" stroke="#0A2540"/>
<path d="M9.10079 14.809C9.10079 18.3872 12.2127 21.288 16.0514 21.288C19.8901 21.288 23.002 18.3872 23.002 14.809C23.002 11.2308 19.8901 8.33008 16.0514 8.33008C12.2127 8.33008 9.10079 11.2308 9.10079 14.809Z" fill="#0041A4"/>
<path d="M9.10079 14.809C9.10079 18.3872 12.2127 21.288 16.0514 21.288C19.8901 21.288 23.002 18.3872 23.002 14.809C23.002 11.2308 19.8901 8.33008 16.0514 8.33008C12.2127 8.33008 9.10079 11.2308 9.10079 14.809Z" stroke="#0A2540"/>
</svg>
